<?xml version="1.0" encoding="utf-8"?>
<!-- Generator: Adobe Illustrator 26.5.0, SVG Export Plug-In . SVG Version: 6.00 Build 0)  -->
<svg version="1.1" id="Lager_2_00000137821838959594678630000003426498838205948863_"
	 xmlns="http://www.w3.org/2000/svg" xmlns:xlink="http://www.w3.org/1999/xlink" x="0px" y="0px" viewBox="0 0 159.4 24.1"
	 style="enable-background:new 0 0 159.4 24.1;" xml:space="preserve">
<style type="text/css">
	.st0{fill:#CDCCCC;stroke:#FFFFFF;}
	.st1{fill:#FFFFFF;}
</style>
<g id="Lager_1-2">
	<g>
		<g>
			<path class="st0" d="M11.7,1.8c4.4,0.3,5.9,2.7,5.9,5.6c0,4.9-4.6,8.9-8.6,9c-1.2,3.4-3.2,5.3-5.9,5.3c-1.7,0-2.7-1-2.7-2.4
				c0-1,0.8-1.9,1.7-1.9c0.5,0.6,1,0.9,1.5,0.9c0.8,0,1.4-1.2,2-3.5C6.5,12,7.3,8,7.9,5.5C6.6,5.7,5.2,6.4,4.5,7
				C3.9,7,3.4,6.5,3.4,5.7c0-1.6,2.3-3.3,5.5-3.8c0.2-0.8,1.3-1.4,2.1-1.4C11.7,0.5,11.7,0.7,11.7,1.8L11.7,1.8z M11.1,5.5
				c-0.2,2-0.7,5.2-1.2,8c0.1,0,0.3,0,0.3,0c2.1,0,3.7-2.4,3.7-5C13.8,7.1,13.3,5.9,11.1,5.5z"/>
			<path class="st0" d="M17,15.6c0-3.7,3-7.4,5.4-7.4c1.7,0,2.6,0.8,2.6,2.5c0,2-1.2,3.6-4.5,4.4c0,1.1,0.2,1.7,1.2,1.7
				c1.6,0,3.8-1.4,5.2-3.5c0.6,0,0.9,0.4,0.9,0.8c0,1.8-4.1,5.7-7.2,5.7C18,19.7,16.9,18.2,17,15.6L17,15.6z M21.7,10.7
				c-0.3,0-1,0.8-1.2,2.5c1.4-0.2,1.7-1,1.7-1.7C22.2,11,22,10.7,21.7,10.7z"/>
			<path class="st0" d="M32.9,9.2c0.8,0,1.8-0.1,2.1-0.2c0.3,0.2,0.5,0.7,0.5,1c0,0.9-0.6,1.6-1.4,1.6c-0.6,0-1.1,0-1.8-0.1
				c-0.7,2.7-0.9,4-0.9,4.4c0,0.6,0.1,0.8,0.7,0.8c1,0,2.7-1.2,4.3-3.5c0.5,0,1,0.3,1,0.8c0,1.4-3.7,5.8-6.5,5.8
				c-1.9,0-3.1-1-3.1-3.2c0-0.7,0.2-2.2,1.2-5.3c-0.5-0.1-0.9-0.1-0.9-0.6c0-0.8,0.5-1.4,1.5-1.5c1.2-3.2,2.5-5.5,4.1-5.5
				c0.5,0,1,0.2,1,0.8C34.6,5.4,33.8,6.6,32.9,9.2z"/>
		</g>
		<g>
			<path class="st1" d="M42.8,18.6c-2,0-3.5-0.8-4.2-1.2l0.5-2.2c0.9,0.5,2.1,1.2,3.6,1.2c1,0,1.5-0.3,1.5-0.9
				c0-0.6-0.5-0.9-1.7-1.1C39.9,13.9,39,12.5,39,11c0-1.6,1.1-3.3,4-3.3c1.7,0,3,0.7,3.6,1l-0.5,2.1c-1-0.6-2-0.9-3-0.9
				c-0.9,0-1.3,0.3-1.3,0.8c0,0.5,0.5,0.7,1.4,0.9c2.9,0.6,3.9,2,3.9,3.3C47.1,17.2,45.7,18.6,42.8,18.6L42.8,18.6z"/>
			<path class="st1" d="M54.3,10.3v7.9H51v-7.9H49V8.1H51V4.7h3.3v3.4h2v2.1H54.3z"/>
			<path class="st1" d="M63,7.8c1.3,0,2.8,0.5,3.6,1.7l0.1-1.3h3.1v10.1h-3.1l-0.1-1.3c-0.9,1.2-2.4,1.7-3.6,1.7
				c-2.7,0-4.8-2.2-4.8-5.4S60.3,7.8,63,7.8L63,7.8z M64.1,16.2c1.3,0,2.5-1,2.5-3s-1.3-3-2.5-3s-2.5,1-2.5,3S62.8,16.2,64.1,16.2z"
				/>
			<path class="st1" d="M76.6,8.1v5.5c0,1.6,0.6,2.3,1.8,2.3s2.4-1.1,2.4-2.4V8.2h3.3v10.1h-3l-0.2-1.8c-0.6,1.3-2.4,2.2-3.8,2.2
				c-2.7,0-3.8-1.9-3.8-4.4V8.2L76.6,8.1L76.6,8.1z"/>
			<path class="st1" d="M90.9,13v5.2h-3.3V8.1h3l0.2,1.8c0.7-1.2,2-2.2,3.7-2.2v3.2C92.7,10.4,90.9,11.3,90.9,13L90.9,13z"/>
			<path class="st1" d="M100.9,7.8c1.3,0,2.8,0.5,3.6,1.7l0.1-1.3h3.1v10.1h-3.1l-0.1-1.3c-0.9,1.2-2.4,1.7-3.6,1.7
				c-2.7,0-4.8-2.2-4.8-5.4S98.2,7.8,100.9,7.8L100.9,7.8z M102,16.2c1.3,0,2.5-1,2.5-3s-1.3-3-2.5-3s-2.5,1-2.5,3
				S100.6,16.2,102,16.2z"/>
			<path class="st1" d="M118.7,18.2v-5.5c0-1.6-0.6-2.3-1.8-2.3s-2.4,1.1-2.4,2.4v5.4h-3.3V8.1h3l0.2,1.8c0.6-1.3,2.4-2.2,3.8-2.2
				c2.7,0,3.8,1.9,3.8,4.4v6.1H118.7L118.7,18.2z"/>
			<path class="st1" d="M130.4,24.1c-1.5,0-3.4-0.6-4.6-1.3v-2.5c1.5,1,2.8,1.3,4.4,1.3s2.9-0.9,2.9-3.2v-1.3
				c-0.9,1.1-2.2,1.5-3.5,1.5c-2.7,0-4.8-2.2-4.8-5.4s2.1-5.4,4.8-5.4c1.3,0,2.8,0.5,3.6,1.7l0.1-1.3h3.1v10
				C136.5,23.1,133.1,24.1,130.4,24.1L130.4,24.1z M130.7,16.2c1.3,0,2.5-0.9,2.5-3s-1.3-3-2.5-3s-2.5,1-2.5,3
				S129.4,16.2,130.7,16.2z"/>
			<path class="st1" d="M149.2,13.3h-6.6c0,1.5,0.8,3,3.3,3c1.1,0,2.5-0.5,3.2-1.2v2.2c-0.9,0.8-2.4,1.3-4.3,1.3
				c-3.3,0-5.5-2.3-5.5-5.5s2.4-5.4,5.3-5.4c2.6,0,4.7,1.7,4.7,4.1C149.4,12.4,149.3,13,149.2,13.3L149.2,13.3z M144.7,9.7
				c-0.9,0-1.7,0.5-1.9,1.9h3.6c0,0,0-0.2,0-0.4C146.4,10.4,145.8,9.7,144.7,9.7z"/>
			<path class="st1" d="M155.9,13v5.2h-3.3V8.1h3l0.2,1.8c0.6-1.2,2-2.2,3.7-2.2v3.2C157.7,10.4,155.9,11.3,155.9,13L155.9,13z"/>
		</g>
	</g>
</g>
</svg>
