<?xml version="1.0" encoding="UTF-8"?>
<svg id="Lager_2" data-name="Lager 2" xmlns="http://www.w3.org/2000/svg" viewBox="0 0 746.25 591.47">
  <defs>
    <style>
      .cls-1 {
        fill: #b3b3b3;
      }

      .cls-2 {
        fill: #3d1111;
      }

      .cls-3 {
        fill: #f2ece2;
      }

      .cls-3, .cls-4 {
        stroke: #000;
        stroke-miterlimit: 10;
        stroke-width: 10px;
      }

      .cls-4 {
        fill: none;
      }
    </style>
  </defs>
  <g id="Lager_1-2" data-name="Lager 1">
    <g>
      <path class="cls-1" d="M163.66,561.38l26.85-30.13-110.75-60.62s-6.42-45.13-30.87-31.26c-7.26,4.12-2.73,10.88-2.73,10.88,0,0-10.55-24.1-23.86-12.29-13.31,11.81-.18,18.96-.18,18.96,0,0-9.48-11.24-19.69,3.34-10.21,14.58,14.95,22.29,14.95,22.29,0,0-7.24-3.72-10.49,3.96-10.96,25.88,35.96,27.34,35.96,27.34l95.04,76.45,12.98-8.86"/>
      <path d="M35.23,465.66c-4.22,4.74,1.78,9.37,2.93,14.71s-2.79,15.57,2.63,18.96c5.42,3.39,8.81-4.21,16.11-11.45,7.3-7.24,14.42-12.4,9.61-17.41-4.82-5.01-11.3-1.52-16.66-1.26-5.35,.26-8.61-10.29-14.62-3.55Z"/>
      <ellipse cx="21.5" cy="494.04" rx="5.65" ry="8.47" transform="translate(-472 462.52) rotate(-83.85)"/>
      <ellipse cx="62.49" cy="451.48" rx="5.58" ry="8.37" transform="translate(-111.22 30.1) rotate(-14.52)"/>
      <ellipse cx="33.96" cy="449.3" rx="5.5" ry="8.25" transform="translate(-324.09 175.76) rotate(-48.3)"/>
      <ellipse cx="17.45" cy="467.84" rx="5.5" ry="8.25" transform="translate(-343.46 169.64) rotate(-48.3)"/>
    </g>
    <g>
      <path class="cls-1" d="M490.69,542.92l-26.85-30.13,110.75-60.62s6.42-45.13,30.87-31.26c7.26,4.12,2.73,10.88,2.73,10.88,0,0,10.55-24.1,23.86-12.29,13.31,11.81,.18,18.96,.18,18.96,0,0,9.48-11.24,19.69,3.34,10.21,14.58-14.95,22.29-14.95,22.29,0,0,7.24-3.72,10.49,3.96,10.96,25.88-35.96,27.34-35.96,27.34l-95.04,76.45-12.98-8.86"/>
      <path d="M619.13,447.2c4.22,4.74-1.78,9.37-2.93,14.71-1.15,5.34,2.79,15.57-2.63,18.96-5.42,3.39-8.81-4.21-16.11-11.45-7.3-7.24-14.42-12.4-9.61-17.41,4.82-5.01,11.3-1.52,16.66-1.26,5.35,.26,8.61-10.29,14.62-3.55Z"/>
      <ellipse cx="632.86" cy="475.57" rx="8.47" ry="5.65" transform="translate(-47.28 70.5) rotate(-6.15)"/>
      <ellipse cx="591.87" cy="433.02" rx="8.37" ry="5.58" transform="translate(24.26 897.38) rotate(-75.48)"/>
      <ellipse cx="620.4" cy="430.84" rx="8.25" ry="5.5" transform="translate(-129.42 521.88) rotate(-41.7)"/>
      <ellipse cx="636.91" cy="449.37" rx="8.25" ry="5.5" transform="translate(-137.57 537.56) rotate(-41.7)"/>
    </g>
    <path d="M27.06,184.33c1.08,4.02,1.87,6.21,2.26,8.47,19.95,115.99,39.87,231.98,59.76,347.98,.45,2.6,.76,5.32,.54,7.93-.44,5.34-4.56,9.66-9.55,10.53-4.68,.82-9.97-1.52-12.27-5.94-1.2-2.3-2.01-4.96-2.35-7.54-5.9-44.14-11.71-88.3-17.53-132.46-.51-3.84-.81-7.71-1.4-11.54-1.69-10.81-8.27-16.6-19.2-17.06-7.14-.3-7.74-.57-8.76-6.82-7.56-46.69-12.68-93.58-9.56-140.96,.74-11.28,3.11-22.49,5.32-33.61,.83-4.16,2.96-8.21,5.2-11.88,1.47-2.41,4.21-4.05,7.54-7.1Z"/>
    <path d="M746.25,259.35c-2.01,6.77-3.69,13.65-6.1,20.28-5.91,16.22-12.07,32.34-18.3,48.44-3.53,9.1-8.78,17.19-16.54,23.22-3.73,2.9-8.02,5.48-12.47,6.98-8.34,2.81-13.56,8.12-16.78,16.17-12.17,30.44-24.56,60.79-36.86,91.17-11.81,29.17-23.55,58.36-35.46,87.49-3.71,9.08-13.04,10.85-20.05,4.1-3.82-3.68-4.7-7.34-2.36-12.46,4.82-10.53,9.89-20.94,14.81-31.43,17.35-37,34.66-74.02,52.01-111.02,5.57-11.87,11.22-23.7,16.79-35.57,2.84-6.06,3.26-12.39,.33-18.4-6.3-12.93-6.22-26.36-.51-38.77,10.21-22.21,21.92-43.72,33.07-65.49,.83-1.62,2.24-2.95,4.43-4.03-.15,1.34,0,2.8-.49,4-6.81,16.8-13.7,33.57-20.6,50.34-1.08,2.63-2.29,5.2-3.46,7.79-1.2,2.67-2.62,5.73,.83,7.42,3.55,1.75,4.92-1.35,6.18-3.99,4.15-8.68,8.23-17.38,12.48-26,4.25-8.62,8.59-17.2,13.04-25.72,1.46-2.81,3.37-5.39,5.08-8.07,.48,.18,.96,.36,1.44,.53-.22,1.52-.15,3.15-.69,4.54-7.28,18.73-14.64,37.43-21.98,56.13-.72,1.83-1.79,3.63-1.96,5.51-.12,1.24,.83,3.41,1.76,3.7,1.34,.42,3.56,0,4.57-.94,1.34-1.27,1.91-3.37,2.74-5.14,7.34-15.63,14.59-31.29,22.03-46.87,1.84-3.86,4.28-7.44,6.45-11.14l1.31,.42c-.06,1.31,.17,2.73-.23,3.93-3.11,9.32-6.15,18.67-9.59,27.87-3.98,10.64-8.36,21.13-12.56,31.69-.4,1.01-1.11,2.11-.98,3.08,.19,1.38,.74,3.47,1.66,3.8,1.34,.48,3.62,.18,4.63-.74,1.35-1.23,1.92-3.35,2.73-5.13,8.31-18.06,16.58-36.13,24.92-54.18,.7-1.52,1.84-2.84,2.78-4.26,.64,.24,1.28,.48,1.92,.73Z"/>
    <path class="cls-1" d="M116.03,444.19C103.92,399.68,69.85,153.24,297.22,3.26c51.52-33.98,10.03,208.59,10.03,208.59,0,0,138.76-1.83,168.98,23.88,30.22,25.71-6.07-136.5,61.24-202.18,22.96-22.41,80.05,70.58,83.23,175.68,2.71,89.62-42.1,171.88-60.26,203.7-101.95,178.56-347.59,147.84-411.74,86.82-20.1-19.12-32.66-55.57-32.66-55.57Z"/>
    <ellipse class="cls-3" cx="262.96" cy="316.96" rx="40.84" ry="33.68"/>
    <ellipse class="cls-3" cx="405.2" cy="320.14" rx="41.19" ry="35.94"/>
    <ellipse cx="330.84" cy="369.07" rx="33.97" ry="25.01"/>
    <ellipse cx="248.42" cy="321.6" rx="28.74" ry="25.01"/>
    <ellipse cx="395.04" cy="320.86" rx="33.97" ry="25.01"/>
    <ellipse class="cls-2" cx="320.16" cy="560.78" rx="54.53" ry="30.7"/>
    <path class="cls-4" d="M363.81,417.93s-44.74,37.5-45.72-43.22c0,0,1.53,57.94-50.15,49.22"/>
    <path class="cls-2" d="M356.91,540.57l202.19-110.08s-11.24,134.73-44.71,140.15c-33.47,5.42-142.37-9.94-142.37-9.94l-15.11-20.13Z"/>
    <path class="cls-2" d="M278.45,542.85l-4.61,32.94s-126.67,19.51-155.51,15.01c-28.84-4.5-9.26-127.44-9.26-127.44l169.37,79.49Z"/>
    <path d="M192.88,207.97c-5.32-9.54-5.25-21.46-2.22-31.95,3.03-10.49,8.75-19.86,14.4-29.08,21.34-34.85,43.75-70.83,77.44-92.82"/>
    <path d="M553.08,101.4c-28.2,46.88-28.49,97.49-28.19,148.03"/>
  </g>
</svg>